<svg xmlns="http://www.w3.org/2000/svg" xmlns:xlink="http://www.w3.org/1999/xlink">

    <symbol id="shapeO" viewBox="0 0 1419.28 1419.28">
        <path d="M710.22,3C319.31,3,2.42,319.89,2.42,710.8s316.89,707.8,707.8,707.8S1418,1101.71,1418,710.8,1101.13,3,
            710.22,3Zm0,1162.6C464.91,1165.6,266,966.74,266,721.42S464.91,277.24,710.22,277.24,1154.4,476.1,1154.4,
            721.42,955.54,1165.6,710.22,1165.6Z" />
    </symbol>

    <symbol id="shapeX" viewBox="0 0 1419.28 1418.28">
        <path d="M1405.4,1202.17,911.54,708.31l492.2-492.2a46,46,0,0,0,0-64.88L1266.38,13.88a46,46,0,0,0-64.88,0l-492.2,
            492.2L217.77,14.54a46,46,0,0,0-64.88,0L15.54,151.9a46,46,0,0,0,0,64.88L507.08,708.31l-493.2,493.2a46,46,0,
            0,0,0,64.88l137.36,137.36a46,46,0,0,0,64.88,0l493.2-493.2,493.86,493.86a46,46,0,0,0,64.88,0L1405.4,1267A46,
            46,0,0,0,+1405.4,1202.17Z" style="stroke-miterlimit: 10;"/>
    </symbol>

    <symbol id="game" viewBox="0 0 462.65 626.04">
        <text 
            transform="translate(14 122.46) scale(1.64 1)" 
            style="font-size: 139.67352294921875px; stroke-linecap: round;
                stroke-linejoin: round; stroke-width: 12px; font-family: Corbel, Corbel;"
        >
            tic 
            <tspan x="0" y="134.61" xml:space="preserve"> tac</tspan>
            <tspan x="0" y="269.22">toe</tspan>
        </text>
    </symbol>

</svg>
