<svg xmlns="http://www.w3.org/2000/svg" xmlns:xlink="http://www.w3.org/1999/xlink" viewBox="0 0 1419.28 1418.28">
   <path d="M1405.4,1202.17,911.54,708.31l492.2-492.2a46,46,0,0,0,0-64.88L1266.38,13.88a46,46,0,0,0-64.88,0l-492.2,
        492.2L217.77,14.54a46,46,0,0,0-64.88,0L15.54,151.9a46,46,0,0,0,0,64.88L507.08,708.31l-493.2,493.2a46,46,0,
        0,0,0,64.88l137.36,137.36a46,46,0,0,0,64.88,0l493.2-493.2,493.86,493.86a46,46,0,0,0,64.88,0L1405.4,1267A46,
        46,0,0,0,+1405.4,1202.17Z" fill="rgba(0, 0, 0, .54)" style="opacity: .6;stroke-miterlimit: 10;"/>
</svg>
